# xmcd CD database file
#
# Track frame offsets:
#	150
#	24021
#	46117
#	63035
#	80227
#	92774
#	105311
#	129521
#	144014
#	161643
#	175816
#	197180
#	216821
#	227612
#	255396
#	280824
#
# Disc length: 4037 seconds
#
# Revision: 2
# Processed by: cddbd v1.4b41PL1 Copyright (c) Steve Scherf et al.
# Submitted via: Feurio! 1.50.2ß - http://www.feurio.com
#
DISCID=c70fc310
DTITLE=Various Artist - Blues - Back To The Roots
DYEAR=1900
DGENRE=
TTITLE0=John Lee Hooker - I'm Wanderin'
TTITLE1=Brownie McGhee - Trouble In Mind
TTITLE2=Buddy Guy - The Things I Used To Do
TTITLE3=Jesse Fuller - Morning Blues
TTITLE4=Albert King - Born Under A Bad Sign
TTITLE5=Ted Hawkins - Watch Your Step
TTITLE6=Chico Banks - Candy Lickin' Man
TTITLE7=Charlie Musselwhite - The Blues Never Die
TTITLE8=Sonny Terry - Worried Blues
TTITLE9=Sleepy John Estes - Clean Up At Home
TTITLE10=Jimmy Whitherspoon - No Rollin' Blues
TTITLE11=Buddy Guy - Stormy Monday Blues
TTITLE12=Junior Wells - Messin' With The Kid
TTITLE13=John Weston and Blues Force - So Doggone Blues
TTITLE14=Lightnin' Hopkins - Cotton Field Blues
TTITLE15=B.B. King - The Thrill Is Gone
EXTD=Zyx Music Sampler
EXTT0=
EXTT1=
EXTT2=
EXTT3=
EXTT4=
EXTT5=
EXTT6=
EXTT7=
EXTT8=
EXTT9=
EXTT10=
EXTT11=
EXTT12=
EXTT13=
EXTT14=
EXTT15=
PLAYORDER=
